<svg fill="rgba(255, 200, 138, 1)" xmlns="http://www.w3.org/2000/svg" xmlns:xlink="http://www.w3.org/1999/xlink" version="1.1" x="0px" y="0px" viewBox="0 0 90 112.5" enable-background="new 0 0 90 90" xml:space="preserve"><path fill-rule="evenodd" clip-rule="evenodd" d="M29.987,5.787L14.04,17.252c-2.511,1.803-3.089,2.812-3.089,5.202v18.391  c0,1.59,1.354,2.121,2.323,1.429l18.5-13.303c1.063-0.766,1.302-1.396,1.297-2.938V7.648C33.071,5.626,31.337,4.82,29.987,5.787z"/><path fill-rule="evenodd" clip-rule="evenodd" d="M67.29,52.793h4.885c1.479,0,2.672,1.193,2.672,2.678v4.886  c0,1.479-1.192,2.672-2.672,2.672H67.29c-1.484,0-2.678-1.193-2.678-2.672v-4.886C64.612,53.986,65.806,52.793,67.29,52.793z   M51.899,52.793h4.885c1.479,0,2.672,1.193,2.672,2.678v4.886c0,1.479-1.192,2.672-2.672,2.672h-4.885  c-1.484,0-2.678-1.193-2.678-2.672v-4.886C49.222,53.986,50.415,52.793,51.899,52.793z M67.29,36.689h4.885  c1.479,0,2.672,1.193,2.672,2.678v4.885c0,1.479-1.192,2.672-2.672,2.672H67.29c-1.484,0-2.678-1.193-2.678-2.672v-4.885  C64.612,37.883,65.806,36.689,67.29,36.689z M51.899,36.689h4.885c1.479,0,2.672,1.193,2.672,2.678v4.885  c0,1.479-1.192,2.672-2.672,2.672h-4.885c-1.484,0-2.678-1.193-2.678-2.672v-4.885C49.222,37.883,50.415,36.689,51.899,36.689z   M41.456,16.721v65.136c0,1.224,0,2.764,2.162,2.764h13.604v-7.899c0-2.667,2.146-4.813,4.813-4.813  c2.672,0,4.818,2.146,4.818,4.813v7.899h13.599c2.156,0,2.161-1.54,2.161-2.77V31.273c0-1.506-1.307-2.74-2.713-3.271L44.17,14.563  C42.795,14.049,41.456,14.841,41.456,16.721z"/><path fill-rule="evenodd" clip-rule="evenodd" d="M19.884,66.538h4.255c1,0,1.802,0.844,1.802,1.891v4.082  c0,1.043-0.802,1.886-1.802,1.886h-4.255c-1,0-1.803-0.843-1.803-1.886v-4.082C18.081,67.382,18.884,66.538,19.884,66.538z   M19.884,54.626h4.255c1,0,1.802,0.84,1.802,1.886v4.084c0,1.047-0.802,1.891-1.802,1.891h-4.255c-1,0-1.803-0.844-1.803-1.891  v-4.084C18.081,55.466,18.884,54.626,19.884,54.626z M33.967,34.063c-0.469,0.017-0.953,0.172-1.411,0.5L11.472,49.721  c-3.317,2.386-4.083,3.719-4.083,6.881v24.474c0,2.266-0.099,3.545,2.161,3.545h24.922c2.266,0,2.167-1.279,2.167-3.545V37.023  C36.639,35.263,35.373,34.018,33.967,34.063z"/></svg>