<svg fill="rgba(255, 200, 138, 1)" xmlns="http://www.w3.org/2000/svg" viewBox="0 0 36 45" x="0px" y="0px"><title>Монтажная область 98</title><g data-name="Слой 5"><path d="M33,11.38a1.68,1.68,0,0,1-1.61,1.17H4.61a1.67,1.67,0,0,1-1-3.05L17.06.29a1.66,1.66,0,0,1,1.88,0L32.35,9.5A1.69,1.69,0,0,1,33,11.38Z"/><path d="M31.4,32.65H4.6A1.68,1.68,0,0,0,4.6,36H31.4a1.68,1.68,0,0,0,0-3.35Z"/><path d="M4.6,29.3A1.68,1.68,0,0,0,6.28,31H29.72a1.68,1.68,0,1,0,0-3.35H6.28A1.68,1.68,0,0,0,4.6,29.3Z"/><path d="M19.67,24.28V15.9a1.67,1.67,0,0,0-3.34,0v8.38a1.67,1.67,0,1,0,3.34,0Z"/><path d="M28.05,24.28V15.9a1.68,1.68,0,0,0-3.35,0v8.38a1.68,1.68,0,0,0,3.35,0Z"/><path d="M11.3,24.28V15.9A1.68,1.68,0,0,0,8,15.9v8.38a1.68,1.68,0,0,0,3.35,0Z"/></g></svg>